<?xml version="1.0" standalone="no"?>
<!DOCTYPE svg PUBLIC "-//W3C//DTD SVG 20010904//EN"
 "http://www.w3.org/TR/2001/REC-SVG-20010904/DTD/svg10.dtd">
<svg version="1.0" xmlns="http://www.w3.org/2000/svg"
 width="274.000000pt" height="163.000000pt" viewBox="0 0 274.000000 163.000000"
 preserveAspectRatio="xMidYMid meet">
<metadata>
Created by potrace 1.10, written by Peter Selinger 2001-2011
</metadata>
<g transform="translate(0.000000,163.000000) scale(0.100000,-0.100000)"
fill="#000000" stroke="none">
<path d="M830 1390 c-110 -19 -217 -76 -299 -159 -101 -103 -130 -194 -96
-292 36 -100 123 -147 289 -155 137 -7 164 -12 187 -35 12 -12 30 -19 44 -17
23 3 23 4 10 41 -18 51 -50 85 -94 97 -20 5 -105 10 -188 10 -141 0 -155 2
-173 20 -29 29 -40 63 -40 123 0 66 40 139 119 217 73 73 134 102 226 108 l72
4 13 -31 c16 -41 62 -79 103 -86 18 -4 85 1 150 10 120 16 137 15 137 -11 0
-8 13 -42 30 -76 38 -76 60 -161 60 -230 0 -30 2 -57 5 -60 3 -3 28 7 56 21
64 31 142 35 147 8 2 -12 -13 -32 -42 -58 -46 -40 -56 -62 -36 -74 11 -7 51
20 103 68 63 60 19 127 -83 127 l-58 0 -30 64 c-16 35 -46 89 -66 120 -38 59
-48 120 -24 144 15 15 -4 16 -126 1 -152 -18 -242 8 -276 79 -16 34 -31 37
-120 22z m625 -461 c-4 -5 -15 -9 -26 -9 -16 0 -19 7 -19 46 l0 47 25 -37 c14
-21 23 -42 20 -47z m-625 -80 c27 -6 50 -15 50 -20 0 -6 4 -8 9 -4 6 3 15 -4
22 -16 10 -20 9 -21 -12 -15 -13 4 -78 12 -144 17 -66 5 -135 12 -152 15 -58
9 -35 23 45 27 42 1 89 4 104 5 15 1 50 -3 78 -9z"/>
<path d="M673 693 c-23 -4 -23 -6 -23 -189 0 -171 1 -185 18 -182 14 3 17 15
18 83 0 56 4 80 12 79 7 -1 23 -2 37 -2 29 -2 44 -28 59 -101 9 -45 15 -55 34
-58 20 -3 22 0 16 19 -4 13 -13 47 -19 77 -7 29 -20 60 -28 68 -14 14 -12 18
11 38 38 32 38 103 2 140 -26 25 -90 39 -137 28z m107 -53 c47 -47 11 -120
-60 -120 l-40 0 4 68 c2 37 4 68 5 70 1 1 17 2 36 2 22 0 43 -8 55 -20z"/>
<path d="M1170 693 c-72 -27 -110 -93 -110 -190 0 -75 19 -124 61 -155 50 -37
169 -36 169 2 0 17 -5 18 -48 13 -93 -11 -142 41 -142 150 0 96 56 152 143
142 42 -5 47 -4 47 13 0 28 -73 42 -120 25z"/>
<path d="M136 673 c-3 -10 -25 -88 -50 -174 -25 -86 -46 -162 -46 -168 0 -7 8
-11 17 -9 11 2 23 23 34 58 l16 55 56 3 56 3 16 -58 c13 -46 21 -59 36 -59 10
0 19 4 19 8 0 6 -71 259 -96 341 -3 10 -15 17 -29 17 -14 0 -26 -7 -29 -17z
m74 -190 c0 -2 -20 -3 -45 -3 -25 0 -45 4 -45 8 0 5 6 31 14 58 8 27 17 63 21
79 7 27 10 22 31 -55 13 -47 24 -86 24 -87z"/>
<path d="M380 507 c0 -176 1 -183 20 -183 18 0 20 7 20 83 l0 83 60 0 c53 0
60 2 60 20 0 18 -7 20 -60 20 l-60 0 0 60 0 60 65 0 c58 0 65 2 65 20 0 18 -7
20 -85 20 l-85 0 0 -183z"/>
<path d="M936 558 c3 -73 9 -164 15 -202 10 -58 17 -74 49 -106 48 -48 130
-65 194 -40 43 16 30 27 -26 23 -65 -5 -104 17 -145 78 -27 41 -28 48 -33 208
l-5 166 -26 3 -27 3 4 -133z"/>
<path d="M1416 518 c-27 -95 -51 -179 -54 -186 -3 -8 4 -11 19 -9 19 3 26 14
37 60 l14 57 58 0 58 0 14 -57 c11 -46 18 -57 37 -60 16 -2 22 1 18 9 -2 7
-26 91 -53 186 -46 165 -49 172 -74 172 -24 0 -27 -7 -74 -172z m84 104 c0 -9
9 -45 19 -79 l19 -63 -50 0 c-44 0 -49 2 -43 18 5 9 15 47 24 84 14 60 31 82
31 40z"/>
<path d="M1710 504 c0 -167 2 -185 16 -182 15 3 17 21 15 158 l-2 155 78 -152
c61 -120 82 -152 100 -156 l23 -4 0 183 c0 181 0 184 -21 184 -21 0 -21 -2
-17 -150 l4 -151 -64 128 c-80 161 -88 173 -112 173 -19 0 -20 -7 -20 -186z"/>
<path d="M2044 665 c-24 -37 -6 -75 36 -75 25 0 30 4 30 24 0 13 -7 27 -16 30
-12 5 -14 1 -9 -15 6 -17 3 -20 -12 -17 -26 5 -23 41 5 53 27 12 29 25 2 25
-11 0 -27 -11 -36 -25z"/>
<path d="M2120 651 c0 -49 23 -76 51 -61 14 8 19 21 19 55 0 57 -18 59 -22 3
-2 -24 -7 -43 -13 -43 -5 0 -11 19 -13 43 -4 53 -22 56 -22 3z"/>
<path d="M2213 643 c-10 -43 -7 -76 4 -45 5 14 33 16 33 2 0 -5 5 -10 11 -10
10 0 7 31 -7 83 -10 32 -31 17 -41 -30z"/>
<path d="M2291 638 c1 -29 4 -43 6 -30 5 27 20 29 28 2 3 -11 10 -20 15 -20 6
0 6 10 0 24 -5 15 -5 27 2 34 15 15 -7 42 -33 42 -16 0 -19 -7 -18 -52z"/>
<path d="M2370 645 c-7 -25 -9 -49 -5 -53 4 -4 10 -1 12 6 3 6 11 12 18 12 7
0 15 -6 18 -12 2 -7 7 -11 10 -8 10 9 -16 100 -28 100 -7 0 -18 -20 -25 -45z"/>
<path d="M2440 640 c0 -54 19 -71 21 -17 l1 32 14 -32 c22 -52 40 -42 35 19
l-5 53 -5 -39 -6 -40 -13 37 c-20 55 -42 48 -42 -13z"/>
<path d="M2520 680 c0 -5 7 -10 16 -10 14 0 16 -7 11 -40 -4 -30 -2 -40 9 -40
10 0 14 12 14 40 0 22 5 40 10 40 6 0 10 5 10 10 0 6 -16 10 -35 10 -19 0 -35
-4 -35 -10z"/>
<path d="M2600 640 c0 -47 2 -50 25 -50 14 0 25 5 25 10 0 6 -7 10 -15 10 -8
0 -15 5 -15 10 0 6 7 10 15 10 8 0 15 5 15 10 0 6 -7 10 -15 10 -8 0 -15 5
-15 10 0 6 7 10 15 10 8 0 15 5 15 10 0 6 -11 10 -25 10 -23 0 -25 -3 -25 -50z"/>
<path d="M2664 640 c0 -48 1 -50 28 -50 15 0 28 5 28 10 0 6 -9 10 -20 10 -11
0 -20 5 -20 10 0 6 9 10 20 10 11 0 20 5 20 10 0 6 -9 10 -20 10 -11 0 -20 5
-20 10 0 6 9 10 20 10 11 0 20 5 20 10 0 6 -13 10 -28 10 -27 0 -28 -2 -28
-50z"/>
<path d="M2050 440 c0 -95 2 -110 16 -110 14 0 16 9 12 50 l-5 50 38 0 c49 0
51 18 3 22 -34 3 -37 5 -39 41 -2 37 -2 37 37 37 21 0 38 5 38 10 0 6 -22 10
-50 10 l-50 0 0 -110z"/>
<path d="M2192 458 c5 -85 8 -94 33 -115 30 -27 59 -24 88 9 13 16 17 39 17
109 0 53 -4 89 -10 89 -6 0 -10 -31 -10 -74 0 -93 -11 -126 -43 -126 -39 0
-47 18 -47 112 0 75 -2 88 -16 88 -15 0 -16 -11 -12 -92z"/>
<path d="M2380 440 c0 -133 18 -149 22 -19 l3 91 45 -88 c25 -48 51 -89 58
-92 9 -3 12 24 12 107 0 67 -4 111 -10 111 -6 0 -10 -36 -10 -87 l-1 -88 -45
88 c-63 119 -74 116 -74 -23z"/>
<path d="M2570 440 l0 -110 44 0 c80 0 128 69 106 152 -14 48 -43 68 -102 68
l-48 0 0 -110z m110 70 c28 -28 27 -98 -1 -134 -15 -19 -30 -26 -55 -26 l-34
0 0 90 0 90 35 0 c22 0 43 -8 55 -20z"/>
<path d="M1304 245 c-4 -9 -2 -21 4 -27 15 -15 44 -1 40 19 -4 23 -36 29 -44
8z"/>
<path d="M1360 237 c0 -14 6 -24 14 -24 12 0 13 5 4 20 -7 14 -7 17 1 13 6 -4
11 -2 11 3 0 6 -7 11 -15 11 -9 0 -15 -9 -15 -23z"/>
<path d="M1460 243 c0 -11 7 -23 15 -27 8 -3 15 0 15 7 0 8 4 6 10 -3 12 -18
12 -2 0 25 -9 20 -9 20 -10 0 -1 -20 -1 -20 -15 -1 -15 19 -15 19 -15 -1z"/>
<path d="M1750 235 c0 -20 4 -26 18 -23 9 2 17 12 17 23 0 11 -8 21 -17 23
-14 3 -18 -3 -18 -23z"/>
<path d="M1826 242 c-4 -13 -5 -26 -2 -29 3 -4 6 -2 6 4 0 6 9 9 20 6 16 -4
20 0 20 18 -1 23 -1 23 -12 4 -11 -19 -11 -19 -18 0 -7 19 -7 19 -14 -3z"/>
<path d="M1920 235 c0 -20 4 -26 18 -23 9 2 17 12 17 23 0 11 -8 21 -17 23
-14 3 -18 -3 -18 -23z"/>
<path d="M2174 236 c-2 -21 2 -24 30 -24 17 1 25 3 17 6 -11 4 -11 6 0 13 12
7 11 9 -1 9 -13 0 -13 1 0 10 12 7 8 10 -15 10 -25 0 -30 -4 -31 -24z"/>
<path d="M2240 235 c0 -20 4 -26 18 -23 9 2 17 12 17 23 0 11 -8 21 -17 23
-14 3 -18 -3 -18 -23z"/>
<path d="M2310 235 c0 -17 5 -25 18 -25 14 0 15 2 2 10 -13 9 -13 10 0 10 12
0 13 2 1 9 -11 7 -11 9 0 14 10 4 9 6 -3 6 -13 1 -18 -7 -18 -24z"/>
<path d="M2430 235 c0 -17 5 -25 18 -25 14 0 15 2 2 10 -13 9 -13 10 0 10 12
0 13 2 1 9 -11 7 -11 9 0 14 10 4 9 6 -3 6 -13 1 -18 -7 -18 -24z"/>
<path d="M2470 238 c0 -14 6 -25 13 -25 16 0 15 39 -1 45 -7 2 -12 -6 -12 -20z"/>
<path d="M2550 237 c0 -14 6 -24 14 -24 12 0 13 5 4 20 -7 14 -7 17 1 13 6 -4
11 -2 11 3 0 6 -7 11 -15 11 -9 0 -15 -9 -15 -23z"/>
<path d="M2640 235 c0 -17 5 -25 18 -25 14 0 15 2 2 10 -13 9 -13 10 0 10 12
0 13 2 1 9 -11 7 -11 9 0 14 10 4 9 6 -3 6 -13 1 -18 -7 -18 -24z"/>
</g>
</svg>
